<?xml version="1.0" standalone="no"?>
<!DOCTYPE svg PUBLIC "-//W3C//DTD SVG 20010904//EN"
 "http://www.w3.org/TR/2001/REC-SVG-20010904/DTD/svg10.dtd">
<svg version="1.0" xmlns="http://www.w3.org/2000/svg"
 width="51.000000pt" height="51.000000pt" viewBox="0 0 51.000000 51.000000"
 preserveAspectRatio="xMidYMid meet">

<g transform="translate(0.000000,51.000000) scale(0.100000,-0.100000)"
fill="#000000" stroke="none">
<path d="M130 485 c0 -2 11 -30 25 -61 14 -31 25 -62 25 -68 -1 -6 -15 -20
-33 -31 -40 -25 -93 -103 -108 -158 -17 -63 -2 -98 51 -124 39 -20 59 -23 165
-23 139 0 197 18 216 67 20 52 -12 141 -76 211 -32 36 -33 39 -14 50 10 7 19
20 19 29 0 14 -3 13 -16 -5 -13 -19 -64 -32 -64 -17 0 3 14 33 31 66 17 34 28
63 25 66 -3 3 -26 -7 -51 -21 -25 -15 -45 -23 -45 -18 0 4 -6 17 -14 27 -14
19 -15 19 -35 1 -20 -19 -23 -19 -57 -3 -37 18 -44 20 -44 12z m130 -27 c1
-34 16 -39 53 -18 43 26 44 21 12 -40 -15 -30 -25 -40 -28 -30 -3 8 -8 22 -10
30 -4 9 -6 6 -6 -7 -1 -13 -5 -23 -11 -23 -5 0 -11 10 -11 23 -2 22 -2 22 -6
0 -2 -12 -11 -24 -19 -27 -10 -4 -14 3 -14 24 0 38 -20 40 -21 3 0 -25 -2 -24
-20 16 -22 50 -20 58 10 39 18 -11 23 -10 38 5 20 20 33 22 33 5z m85 -139
c46 -31 104 -115 112 -161 15 -94 -28 -122 -187 -122 -171 -1 -220 19 -220 91
0 71 73 177 144 209 42 19 109 12 151 -17z"/>
<path d="M70 145 c0 -4 7 -19 15 -34 18 -36 105 -70 105 -41 0 6 -13 10 -28
10 -31 0 -72 32 -72 55 0 8 -4 15 -10 15 -5 0 -10 -2 -10 -5z"/>
</g>
</svg>
